<?xml version="1.0" encoding="utf-8"?>
<!-- Generator: Adobe Illustrator 16.0.4, SVG Export Plug-In . SVG Version: 6.00 Build 0)  -->
<!DOCTYPE svg PUBLIC "-//W3C//DTD SVG 1.1//EN" "http://www.w3.org/Graphics/SVG/1.1/DTD/svg11.dtd">
<svg version="1.1" id="Calque_1" xmlns="http://www.w3.org/2000/svg" xmlns:xlink="http://www.w3.org/1999/xlink" x="0px" y="0px"
	 width="40px" height="40px" viewBox="0 0 40 40" enable-background="new 0 0 40 40" xml:space="preserve">
<g id="_x2B_WEB-40_1_">
	<g>
		<circle fill="#FFFFFF" cx="20" cy="20" r="19.5"/>
	</g>
	<g>
		<path fill="#575756" d="M20.512,14.988v3.566h-2.478v-3.566H14.66v-2.369h3.375V9.053h2.478v3.566h3.376v2.369H20.512z"/>
		<path fill="#575756" d="M15.123,28.757l-0.24,0.02l-2.356-4.594l-2.323,4.594l-0.23-0.02L7.18,20.96h2.04l1.236,4.028l2-4.09
			h0.188l2.008,4.06l1.224-3.998h2L15.123,28.757z"/>
		<path fill="#575756" d="M18.719,28.632V20.96h4.854v1.632h-3.076v1.371h2.806v1.548h-2.806v1.497h3.076v1.623H18.719z"/>
		<path fill="#575756" d="M27.438,28.704c-0.67,0-1.539-0.063-2.293-0.159v-7.49c0.555-0.084,1.518-0.168,2.146-0.168
			c2.228,0,3.359,0.993,3.359,2.06c0,0.809-0.449,1.353-1.318,1.707c1.046,0.313,1.537,0.921,1.537,1.802
			C30.87,27.646,29.741,28.704,27.438,28.704z M27.679,22.437c-0.324,0-0.555,0.03-0.806,0.072v1.6
			c0.2,0.021,0.335,0.032,0.661,0.032c0.856,0,1.285-0.313,1.285-0.868C28.819,22.812,28.432,22.437,27.679,22.437z M27.543,25.344
			c-0.272,0-0.491,0.011-0.67,0.031v1.78c0.251,0.021,0.389,0.031,0.742,0.031c0.901,0,1.331-0.345,1.331-0.922
			C28.946,25.68,28.484,25.344,27.543,25.344z"/>
	</g>
</g>
</svg>
