<?xml version="1.0" encoding="utf-8"?>
<!-- Generator: Adobe Illustrator 16.0.4, SVG Export Plug-In . SVG Version: 6.00 Build 0)  -->
<!DOCTYPE svg PUBLIC "-//W3C//DTD SVG 1.1//EN" "http://www.w3.org/Graphics/SVG/1.1/DTD/svg11.dtd">
<svg version="1.1" id="Calque_1" xmlns="http://www.w3.org/2000/svg" xmlns:xlink="http://www.w3.org/1999/xlink" x="0px" y="0px"
	 width="40px" height="40px" viewBox="0 0 40 40" enable-background="new 0 0 40 40" xml:space="preserve">
<g id="_x2B_WEB-40_1_" display="none">
	<g display="inline">
		<circle fill="#FFFFFF" cx="20" cy="20" r="19.5"/>
	</g>
	<g display="inline">
		<path fill="#575756" d="M20.512,14.988v3.566h-2.478v-3.566H14.66v-2.369h3.375V9.053h2.478v3.566h3.376v2.369H20.512z"/>
		<path fill="#575756" d="M15.123,28.757l-0.24,0.02l-2.356-4.594l-2.323,4.594l-0.23-0.02L7.18,20.96h2.04l1.236,4.028l2-4.09
			h0.188l2.008,4.06l1.224-3.998h2L15.123,28.757z"/>
		<path fill="#575756" d="M18.719,28.632V20.96h4.854v1.632h-3.076v1.371h2.806v1.548h-2.806v1.497h3.076v1.623H18.719z"/>
		<path fill="#575756" d="M27.438,28.704c-0.67,0-1.539-0.063-2.293-0.159v-7.49c0.555-0.084,1.518-0.168,2.146-0.168
			c2.228,0,3.359,0.993,3.359,2.06c0,0.809-0.449,1.353-1.318,1.707c1.046,0.313,1.537,0.921,1.537,1.802
			C30.87,27.646,29.741,28.704,27.438,28.704z M27.679,22.437c-0.324,0-0.555,0.03-0.806,0.072v1.6
			c0.2,0.021,0.335,0.032,0.661,0.032c0.856,0,1.285-0.313,1.285-0.868C28.819,22.812,28.432,22.437,27.679,22.437z M27.543,25.344
			c-0.272,0-0.491,0.011-0.67,0.031v1.78c0.251,0.021,0.389,0.031,0.742,0.031c0.901,0,1.331-0.345,1.331-0.922
			C28.946,25.68,28.484,25.344,27.543,25.344z"/>
	</g>
</g>
<g id="_x2B_WEB-40">
	<g>
		<circle fill="#575756" cx="20" cy="20" r="19.5"/>
	</g>
	<g>
		<path fill="#FFFFFF" d="M20.512,14.988v3.566h-2.478v-3.566h-3.375V12.62h3.375V9.054h2.478v3.566h3.376v2.369H20.512z"/>
		<path fill="#FFFFFF" d="M15.122,28.756l-0.24,0.02l-2.355-4.594l-2.323,4.594l-0.23-0.02L7.18,20.96h2.04l1.236,4.027l1.999-4.09
			h0.189l2.007,4.06l1.225-3.997h1.999L15.122,28.756z"/>
		<path fill="#FFFFFF" d="M18.717,28.63v-7.67h4.855v1.632h-3.076v1.371h2.806v1.548h-2.806v1.497h3.076v1.622H18.717z"/>
		<path fill="#FFFFFF" d="M27.438,28.703c-0.671,0-1.539-0.063-2.293-0.158v-7.492c0.554-0.083,1.518-0.167,2.146-0.167
			c2.228,0,3.358,0.994,3.358,2.061c0,0.807-0.449,1.352-1.318,1.706c1.047,0.314,1.538,0.922,1.538,1.802
			C30.87,27.646,29.74,28.703,27.438,28.703z M27.678,22.436c-0.323,0-0.555,0.03-0.805,0.072v1.6
			c0.199,0.021,0.335,0.032,0.659,0.032c0.858,0,1.286-0.313,1.286-0.868C28.818,22.811,28.433,22.436,27.678,22.436z
			 M27.542,25.344c-0.271,0-0.491,0.009-0.669,0.03v1.78c0.25,0.021,0.387,0.03,0.742,0.03c0.9,0,1.33-0.345,1.33-0.921
			C28.945,25.679,28.483,25.344,27.542,25.344z"/>
	</g>
</g>
</svg>
